<svg xmlns="http://www.w3.org/2000/svg" version="1.1" xmlns:xlink="http://www.w3.org/1999/xlink" xmlns:svgjs="http://svgjs.dev/svgjs" width="1000" height="1125" viewBox="0 0 1000 1125"><g transform="matrix(1,0,0,1,1.7053025658242404e-13,0)"><svg viewBox="0 0 320 360" data-background-color="#ffffff" preserveAspectRatio="xMidYMid meet" height="1125" width="1000" xmlns="http://www.w3.org/2000/svg" xmlns:xlink="http://www.w3.org/1999/xlink"><defs></defs><g id="tight-bounds" transform="matrix(1,0,0,1,0,0)"><svg viewBox="0 0 320 360" height="360" width="320"><g><svg></svg></g><g><svg viewBox="0 0 320 360" height="360" width="320"><g><path d="M20.961 227.22l3.726 4.658-1.863-6.056c-0.466-2.795-3.726 0.466-1.863 1.398M25.153 224.425c1.397 2.329 2.795 4.658 2.795 6.987 0 3.261 2.795 4.658 5.123 5.589-3.261-3.726-5.124-13.974-7.918-12.576M204.017 26.929c7.918 0 15.371-0.932 23.756 0.931 20.495 5.124 37.729 15.371 49.374 29.811l32.606 52.169c1.397 13.042 4.192 27.482 3.726 43.319 3.261 0 2.795-4.658 6.521-5.59-3.726 9.316-5.59 20.961-6.521 34.469-2.329-7.453 0-18.632 0.466-24.687-3.261 5.124-5.124 1.397-5.124-0.932 0.466-3.726-1.397-3.261-2.795-4.658-5.124-4.658-8.384-9.782-12.11-17.7 2.329-6.055 2.795-14.905-4.658-19.563-2.329-1.397-5.124-3.726-6.521-7.453-1.863-5.124-5.124-11.179-4.193-19.097 0.466-2.329-6.987 5.124-11.179 1.863-18.166-12.576-36.332-27.016-58.224-39.127-11.645 0-20.029-4.192-24.221-9.316-3.726-4.658-0.932-10.713 4.658-11.179 3.261 0 6.987-0.932 9.782 0.932 0.466-1.863 2.329-4.192 4.657-4.192M157.904 16.215l0.932 0.466c4.658 0.932 6.987 7.453 12.11 5.124 0 3.261 0.466 6.521-0.466 8.85-1.397 3.726-5.59 3.726-8.85 3.726-31.208-1.863-49.374 11.179-68.471 22.358-5.124 3.261-10.713 5.59-14.906 9.782-20.029 18.632-41.921 35.866-47.045 70.335l-4.192 38.195c-0.466 4.192-5.124 8.384-4.192 13.508l3.26 22.824c-3.261-3.261-5.124 0.932-4.192 2.795 0.466 1.397 2.329 6.055 5.124 1.863 3.726 6.987 7.453 20.495 12.576 26.55 15.837 18.632 36.332 35.4 53.101 52.169 4.192-0.932 7.453-0.932 8.384-3.727 1.397 2.795-1.397 5.59-3.726 6.056 7.453 4.658 15.837 8.85 27.016 9.781 14.44 0.932 27.948 3.261 40.524 6.522 6.521-1.863 13.042-2.795 20.029-3.261 2.329 0 3.726-3.726 6.521-4.658l0.466-4.658c2.795 4.192 2.329-1.397 0.466-4.192 3.261 2.795 4.192 5.124 5.589 6.987 0-1.397 3.726-6.521 3.727-0.466l0.931-6.055c1.397-0.932 1.863 5.124 3.261 0.931 1.397-4.192 4.192-0.932 6.987-2.329-0.932 1.863-0.466 5.59 2.794 3.261l3.727-3.261c2.329 5.59 6.055 3.261 7.918 2.329 20.495-13.042 40.99-28.413 60.553-43.784l-0.466 6.055 2.329-7.453c2.329 2.329 4.192 0.466 5.124-0.931 2.795-4.658 6.521-9.316 12.577-13.508-7.453 20.029-16.303 35.866-27.482 48.908l-4.658 5.59c0 3.261-0.932 7.453-4.658 7.918-1.863 0.466-5.59-0.932-8.384 1.863-1.397 1.863 3.261 5.59-0.466 2.795-3.261-2.329-6.521 0-10.248 0.932-2.795 0.932 1.863 3.726 2.795 5.589 0.932 1.863 1.863 3.726 1.398 6.056l-5.124-5.59c-6.055 3.261-9.782 9.316-14.906 13.974-2.329 1.863-1.397 5.124-1.397 7.918-3.261 0-6.987-0.932-8.85 0.932-1.397 1.863-0.932 4.658-0.932 7.453-4.658-0.466-5.124-7.453-9.315-6.056-4.192 0.932-8.85 1.397-12.577 3.727 2.795 5.59-4.658 2.329-3.726 3.26-6.987-4.192-13.042-7.453-20.495-4.658-15.837-5.124-35.4-2.795-49.84-0.931 0-2.329 0.466-4.658-0.466-5.124-0.932 2.329-3.726 1.397-3.26 1.397-8.85-6.055-17.7-9.782-27.016-14.905-8.384 0.932-16.303-3.261-18.632-5.59-6.521-6.055-13.974-2.795-20.029-4.192-13.042-3.261-17.7-16.769-19.098-26.084-0.932-4.658-4.658-6.521-6.055-6.056-6.055-19.563-15.371-37.263-22.824-55.429-1.863-4.658-1.397-9.316-1.397-14.44 2.329 0.932 4.658 0.466 4.192-2.794-2.329-15.371-7.918-27.016-13.974-38.195 3.261-15.837 3.726-34.469 11.179-48.443 6.521-12.576 18.632-19.098 27.016-29.811 2.795-3.726 2.795-8.85 5.59-12.11 9.316-9.316 18.632-19.098 28.879-27.482 4.658-3.726 10.247 0 17.234-1.397 2.329-8.384 11.645-15.837 20.495-13.508 3.726 0.932 11.179-8.85 13.508-9.782 3.726-1.397 1.863 3.726 1.863 6.987 8.85-6.987 20.961-10.713 32.14-14.906" fill="#000000" data-fill-palette-color="tertiary"></path></g><g transform="matrix(1,0,0,1,64,137.5920994732956)"><svg viewBox="0 0 192 84.8158010534088" height="84.8158010534088" width="192"><g><svg viewBox="0 0 192 84.8158010534088" height="84.8158010534088" width="192"><g><svg viewBox="0 0 192 84.8158010534088" height="84.8158010534088" width="192"><g transform="matrix(1,0,0,1,0,51.264238168840755)"><svg viewBox="0 0 192 33.55156288456805" height="33.55156288456805" width="192"><g><svg viewBox="0 0 192 33.55156288456805" height="33.55156288456805" width="192"><g><svg viewBox="0 0 192 33.55156288456805" height="33.55156288456805" width="192"><g transform="matrix(1,0,0,1,0,0)"><svg width="192" viewBox="3.5 -35.5 203.13999938964844 35.5" height="33.55156288456805" data-palette-color="#000000"><path d="M8.2-15.9L8.2 0 3.5 0 3.5-35 8.2-35 8.2-20.3 23.4-20.3 23.4-35 28.1-35 28.1 0 23.4 0 23.4-15.9 8.2-15.9ZM51.8-35L56.5-35 56.5-32.5Q56.5-26.4 54.22-21.33 51.95-16.25 47.6-13.6L47.6-13.6 47.6 0 42.9 0 42.9-13.5Q38.55-16.1 36.2-21.08 33.85-26.05 33.85-32.05L33.85-32.05 33.85-35 38.65-35 38.65-32.5Q38.65-27.35 40.12-23.68 41.6-20 45.25-17.65L45.25-17.65Q51.8-22 51.8-32.5L51.8-32.5 51.8-35ZM66.7-23.2L66.7 0 62 0 62-23Q62-28.9 65.17-32.2 68.34-35.5 73.59-35.5L73.59-35.5Q79.2-35.5 82.27-32.3 85.34-29.1 85.34-24.15L85.34-24.15Q85.34-21.05 84.22-18.75 83.09-16.45 81.2-15.2 79.3-13.95 77.15-13.35 75-12.75 72.65-12.75L72.65-12.75 68.9-12.75 68.9-17.15 73.2-17.15Q76.55-17.15 78.47-19.18 80.4-21.2 80.4-24.25L80.4-24.25Q80.4-27.25 78.62-29.18 76.84-31.1 73.55-31.1L73.55-31.1Q70.34-31.1 68.52-28.93 66.7-26.75 66.7-23.2L66.7-23.2ZM110.24-4.4L110.24 0 90.34 0 90.34-26.65Q90.34-30.35 92.69-32.6L92.69-32.6Q94.29-34.1 96.29-34.55 98.29-35 101.19-35L101.19-35 110.24-35 110.24-30.6 100.54-30.6Q95.04-30.6 95.04-26L95.04-26 95.04-20.3 106.59-20.3 106.59-15.9 95.04-15.9 95.04-4.4 110.24-4.4ZM132.14-4.4L132.14-4.4 135.74-4.4 135.74-14.9 130.59-14.9 130.59-19.3 140.44-19.3 140.44 0 132.74 0Q124.69 0 120.12-4.58 115.54-9.15 115.49-17.5L115.49-17.5Q115.54-25.85 120.12-30.43 124.69-35 132.74-35L132.74-35 138.49-35 138.49-30.6 132.14-30.6Q126.59-30.6 123.62-26.93 120.64-23.25 120.54-17.5L120.54-17.5Q120.64-11.75 123.62-8.08 126.59-4.4 132.14-4.4ZM163.39-35L168.09-35 168.09-32.5Q168.09-26.4 165.81-21.33 163.54-16.25 159.19-13.6L159.19-13.6 159.19 0 154.49 0 154.49-13.5Q150.14-16.1 147.79-21.08 145.44-26.05 145.44-32.05L145.44-32.05 145.44-35 150.24-35 150.24-32.5Q150.24-27.35 151.71-23.68 153.19-20 156.84-17.65L156.84-17.65Q163.39-22 163.39-32.5L163.39-32.5 163.39-35ZM185.99-26.3L190.09-10.85 190.39-10.85 194.49-26.3Q195.79-31.3 198.49-33.15 201.19-35 206.64-35L206.64-35 206.64 0 201.94 0 201.94-29.7Q200.64-29.15 199.96-28.15 199.29-27.15 198.69-25.15L198.69-25.15 192.44-3.7 188.03-3.7 181.74-25.15Q181.14-27.2 180.49-28.18 179.84-29.15 178.53-29.7L178.53-29.7 178.53 0 173.84 0 173.84-35Q179.28-35 181.96-33.13 184.64-31.25 185.99-26.3L185.99-26.3Z" opacity="1" transform="matrix(1,0,0,1,0,0)" fill="#000000" class="undefined-text-0" data-fill-palette-color="primary" id="text-0"></path></svg></g></svg></g></svg></g></svg></g><g transform="matrix(1,0,0,1,75.80404640322313,0)"><svg viewBox="0 0 40.39190719355374 46.36825990647305" height="46.36825990647305" width="40.39190719355374"><g><svg xmlns="http://www.w3.org/2000/svg" xmlns:xlink="http://www.w3.org/1999/xlink" version="1.1" x="0" y="0" viewBox="10.100000381469727 5.199999809265137 78.4000015258789 90" enable-background="new 0 0 100 100" xml:space="preserve" height="46.36825990647305" width="40.39190719355374" class="icon-icon-0" data-fill-palette-color="accent" id="icon-0"><polygon fill-rule="evenodd" clip-rule="evenodd" fill="#61777f" points="88.5,28.2 68.4,59.9 68.5,22.3 " data-fill-palette-color="accent"></polygon><polygon fill-rule="evenodd" clip-rule="evenodd" fill="#61777f" points="49.8,5.2 67.2,38.5 34.7,19.6 " data-fill-palette-color="accent"></polygon><polygon fill-rule="evenodd" clip-rule="evenodd" fill="#61777f" points="67.8,38.3 67.8,22.3 60.8,24.5 " data-fill-palette-color="accent"></polygon><polygon fill-rule="evenodd" clip-rule="evenodd" fill="#61777f" points="88.2,73.2 50.6,71.7 83.2,52.9 " data-fill-palette-color="accent"></polygon><polygon fill-rule="evenodd" clip-rule="evenodd" fill="#61777f" points="69.1,60.3 82.8,52.3 77.4,47.4 " data-fill-palette-color="accent"></polygon><polygon fill-rule="evenodd" clip-rule="evenodd" fill="#61777f" points="48.7,95.2 31.5,61.9 63.9,80.9 " data-fill-palette-color="accent"></polygon><polygon fill-rule="evenodd" clip-rule="evenodd" fill="#61777f" points="50.5,72.2 64.2,80.2 65.8,73.1 " data-fill-palette-color="accent"></polygon><polygon fill-rule="evenodd" clip-rule="evenodd" fill="#61777f" points="10.1,72 30.5,40.4 30.1,78 " data-fill-palette-color="accent"></polygon><polygon fill-rule="evenodd" clip-rule="evenodd" fill="#61777f" points="30.9,62.1 30.8,78 37.8,75.8 " data-fill-palette-color="accent"></polygon><polygon fill-rule="evenodd" clip-rule="evenodd" fill="#61777f" points="11,27 48.5,28.9 15.8,47.3 " data-fill-palette-color="accent"></polygon><polygon fill-rule="evenodd" clip-rule="evenodd" fill="#61777f" points="30,40.1 16.1,47.9 21.5,52.9 " data-fill-palette-color="accent"></polygon><polygon fill-rule="evenodd" clip-rule="evenodd" fill="#61777f" points="48.2,28.3 34.5,20.2 32.9,27.4 " data-fill-palette-color="accent"></polygon></svg></g></svg></g><g></g></svg></g></svg></g></svg></g></svg></g></svg><rect width="320" height="360" fill="none" stroke="none" visibility="hidden"></rect></g></svg></g></svg>